<svg width="441" height="441" viewBox="0 0 441 441" fill="none" xmlns="http://www.w3.org/2000/svg">
<g clip-path="url(#clip0_2076_3266)">
<rect width="441" height="441" fill="#ED1C24"/>
<path d="M48.9797 269.24C47.4117 269.24 46.0677 268.96 44.9477 268.4C43.8437 267.824 42.8917 266.992 42.0917 265.904L44.3477 263.36C45.1317 264.448 45.9077 265.192 46.6757 265.592C47.4597 265.976 48.2997 266.168 49.1957 266.168C49.6917 266.168 50.1317 266.096 50.5157 265.952C50.9157 265.808 51.2277 265.608 51.4517 265.352C51.6917 265.096 51.8117 264.8 51.8117 264.464C51.8117 264.208 51.7557 263.976 51.6437 263.768C51.5317 263.544 51.3717 263.352 51.1637 263.192C50.9557 263.016 50.7077 262.864 50.4197 262.736C50.1317 262.592 49.8117 262.472 49.4597 262.376C49.1077 262.28 48.7237 262.192 48.3077 262.112C47.4117 261.92 46.6277 261.672 45.9557 261.368C45.2837 261.064 44.7237 260.696 44.2757 260.264C43.8277 259.832 43.4917 259.336 43.2677 258.776C43.0597 258.2 42.9557 257.56 42.9557 256.856C42.9557 255.864 43.2357 255 43.7957 254.264C44.3557 253.512 45.0997 252.928 46.0277 252.512C46.9557 252.08 47.9797 251.864 49.0997 251.864C50.6197 251.864 51.8677 252.12 52.8437 252.632C53.8357 253.144 54.6277 253.864 55.2197 254.792L52.9157 257.048C52.4197 256.36 51.8517 255.84 51.2117 255.488C50.5717 255.136 49.8837 254.96 49.1477 254.96C48.6357 254.96 48.1797 255.032 47.7797 255.176C47.3957 255.304 47.0997 255.504 46.8917 255.776C46.6837 256.032 46.5797 256.336 46.5797 256.688C46.5797 256.976 46.6517 257.232 46.7957 257.456C46.9397 257.68 47.1397 257.88 47.3957 258.056C47.6677 258.216 47.9957 258.36 48.3797 258.488C48.7637 258.616 49.1877 258.72 49.6517 258.8C50.5317 258.976 51.3237 259.216 52.0277 259.52C52.7317 259.808 53.3317 260.16 53.8277 260.576C54.3397 260.992 54.7317 261.472 55.0037 262.016C55.2757 262.56 55.4117 263.168 55.4117 263.84C55.4117 264.976 55.1397 265.944 54.5957 266.744C54.0517 267.544 53.2997 268.16 52.3397 268.592C51.3797 269.024 50.2597 269.24 48.9797 269.24ZM62.5603 269.24C61.6483 269.24 60.8563 269.04 60.1843 268.64C59.5123 268.224 58.9923 267.64 58.6243 266.888C58.2723 266.12 58.0963 265.208 58.0963 264.152L58.0963 256.304L61.5043 256.304L61.5043 263.528C61.5043 264.424 61.7123 265.128 62.1283 265.64C62.5603 266.136 63.1523 266.384 63.9043 266.384C64.2883 266.384 64.6323 266.328 64.9363 266.216C65.2563 266.088 65.5283 265.912 65.7523 265.688C65.9763 265.464 66.1523 265.2 66.2803 264.896C66.4083 264.592 66.4723 264.256 66.4723 263.888L66.4723 256.304L69.8803 256.304L69.8803 269L66.6403 269L66.5443 266.384L67.1443 266.096C66.9683 266.688 66.6483 267.224 66.1843 267.704C65.7363 268.184 65.2003 268.56 64.5763 268.832C63.9523 269.104 63.2803 269.24 62.5603 269.24ZM73.3095 274.28L73.3095 256.304L76.5975 256.304L76.7175 259.136L76.0935 258.92C76.1895 258.424 76.4535 257.96 76.8855 257.528C77.3335 257.096 77.8855 256.744 78.5415 256.472C79.1975 256.2 79.8855 256.064 80.6055 256.064C81.7095 256.064 82.6855 256.344 83.5335 256.904C84.3975 257.464 85.0775 258.24 85.5735 259.232C86.0695 260.224 86.3175 261.368 86.3175 262.664C86.3175 263.912 86.0695 265.032 85.5735 266.024C85.0775 267.016 84.3975 267.8 83.5335 268.376C82.6695 268.936 81.6935 269.216 80.6055 269.216C79.8695 269.216 79.1655 269.072 78.4935 268.784C77.8375 268.496 77.2775 268.128 76.8135 267.68C76.3495 267.232 76.0615 266.744 75.9495 266.216L76.7415 265.88L76.7415 274.28L73.3095 274.28ZM79.8375 266.288C80.4775 266.288 81.0295 266.136 81.4935 265.832C81.9735 265.528 82.3415 265.104 82.5975 264.56C82.8695 264 83.0055 263.368 83.0055 262.664C83.0055 261.944 82.8695 261.312 82.5975 260.768C82.3415 260.208 81.9735 259.776 81.4935 259.472C81.0295 259.168 80.4775 259.016 79.8375 259.016C79.1975 259.016 78.6375 259.168 78.1575 259.472C77.6775 259.776 77.3015 260.2 77.0295 260.744C76.7575 261.288 76.6215 261.928 76.6215 262.664C76.6215 263.368 76.7575 264 77.0295 264.56C77.3015 265.104 77.6775 265.528 78.1575 265.832C78.6375 266.136 79.1975 266.288 79.8375 266.288ZM94.9194 269.24C93.5434 269.24 92.3354 268.96 91.2954 268.4C90.2714 267.84 89.4714 267.072 88.8954 266.096C88.3354 265.12 88.0554 264.008 88.0554 262.76C88.0554 261.768 88.2154 260.864 88.5354 260.048C88.8554 259.216 89.3034 258.504 89.8794 257.912C90.4554 257.32 91.1354 256.864 91.9194 256.544C92.7194 256.208 93.5914 256.04 94.5354 256.04C95.3994 256.04 96.1914 256.2 96.9114 256.52C97.6474 256.824 98.2794 257.264 98.8074 257.84C99.3514 258.4 99.7674 259.064 100.055 259.832C100.343 260.6 100.479 261.44 100.463 262.352L100.439 263.408L90.2394 263.408L89.6874 261.296L97.6314 261.296L97.2234 261.728L97.2234 261.224C97.1914 260.776 97.0474 260.384 96.7914 260.048C96.5514 259.712 96.2394 259.448 95.8554 259.256C95.4714 259.048 95.0474 258.944 94.5834 258.944C93.8634 258.944 93.2554 259.088 92.7594 259.376C92.2794 259.648 91.9114 260.048 91.6554 260.576C91.4154 261.088 91.2954 261.728 91.2954 262.496C91.2954 263.248 91.4554 263.912 91.7754 264.488C92.0954 265.048 92.5514 265.48 93.1434 265.784C93.7514 266.088 94.4634 266.24 95.2794 266.24C95.8394 266.24 96.3514 266.152 96.8154 265.976C97.2794 265.8 97.7834 265.496 98.3274 265.064L99.9354 267.344C99.4874 267.744 98.9834 268.088 98.4234 268.376C97.8634 268.664 97.2874 268.88 96.6954 269.024C96.1034 269.168 95.5114 269.24 94.9194 269.24ZM102.981 269L102.981 256.304L106.269 256.304L106.389 260.384L105.813 259.52C106.021 258.88 106.333 258.296 106.749 257.768C107.181 257.24 107.685 256.824 108.261 256.52C108.853 256.2 109.469 256.04 110.109 256.04C110.397 256.04 110.661 256.064 110.901 256.112C111.157 256.144 111.373 256.2 111.549 256.28L110.637 260C110.461 259.92 110.229 259.848 109.941 259.784C109.669 259.704 109.389 259.664 109.101 259.664C108.733 259.664 108.381 259.736 108.045 259.88C107.725 260.008 107.437 260.2 107.181 260.456C106.941 260.696 106.749 260.984 106.605 261.32C106.477 261.656 106.413 262.032 106.413 262.448L106.413 269L102.981 269ZM113.481 269L113.481 256.304L116.769 256.304L116.841 258.728L116.337 258.872C116.497 258.456 116.721 258.08 117.009 257.744C117.313 257.392 117.657 257.096 118.041 256.856C118.425 256.616 118.833 256.424 119.265 256.28C119.713 256.136 120.153 256.064 120.585 256.064C121.257 256.064 121.849 256.168 122.361 256.376C122.889 256.584 123.337 256.912 123.705 257.36C124.073 257.808 124.353 258.392 124.545 259.112L124.041 259.016L124.209 258.656C124.417 258.288 124.681 257.944 125.001 257.624C125.321 257.304 125.681 257.032 126.081 256.808C126.481 256.568 126.897 256.384 127.329 256.256C127.761 256.128 128.185 256.064 128.601 256.064C129.593 256.064 130.409 256.264 131.049 256.664C131.705 257.064 132.193 257.656 132.513 258.44C132.849 259.208 133.017 260.168 133.017 261.32L133.017 269L129.609 269L129.609 261.56C129.609 260.696 129.433 260.056 129.081 259.64C128.745 259.224 128.225 259.016 127.521 259.016C127.153 259.016 126.809 259.08 126.489 259.208C126.169 259.32 125.897 259.488 125.673 259.712C125.449 259.936 125.273 260.192 125.145 260.48C125.017 260.768 124.953 261.088 124.953 261.44L124.953 269L121.545 269L121.545 261.512C121.545 260.712 121.361 260.096 120.993 259.664C120.641 259.232 120.129 259.016 119.457 259.016C119.105 259.016 118.769 259.08 118.449 259.208C118.129 259.32 117.857 259.488 117.633 259.712C117.409 259.92 117.233 260.176 117.105 260.48C116.977 260.768 116.913 261.088 116.913 261.44L116.913 269L113.481 269ZM143.295 269L143.295 261.056C143.295 260.384 143.087 259.872 142.671 259.52C142.271 259.152 141.727 258.968 141.039 258.968C140.383 258.968 139.799 259.096 139.287 259.352C138.775 259.608 138.295 260.008 137.847 260.552L135.759 258.536C136.527 257.736 137.383 257.12 138.327 256.688C139.287 256.256 140.327 256.04 141.447 256.04C142.471 256.04 143.359 256.2 144.111 256.52C144.879 256.84 145.471 257.32 145.887 257.96C146.303 258.6 146.511 259.408 146.511 260.384L146.511 269L143.295 269ZM139.815 269.24C139.015 269.24 138.287 269.08 137.631 268.76C136.991 268.44 136.479 268 136.095 267.44C135.727 266.864 135.543 266.192 135.543 265.424C135.543 264.768 135.663 264.192 135.903 263.696C136.143 263.184 136.495 262.768 136.959 262.448C137.439 262.112 138.031 261.856 138.735 261.68C139.455 261.504 140.287 261.416 141.231 261.416L144.975 261.416L144.759 263.696L141.183 263.696C140.799 263.696 140.455 263.728 140.151 263.792C139.863 263.856 139.615 263.96 139.407 264.104C139.215 264.248 139.063 264.416 138.951 264.608C138.855 264.8 138.807 265.024 138.807 265.28C138.807 265.552 138.879 265.792 139.023 266C139.167 266.208 139.359 266.368 139.599 266.48C139.855 266.592 140.143 266.648 140.463 266.648C140.927 266.648 141.367 266.568 141.783 266.408C142.215 266.248 142.599 266.024 142.935 265.736C143.271 265.448 143.535 265.12 143.727 264.752L144.375 266.456C144.039 267 143.631 267.48 143.151 267.896C142.671 268.312 142.151 268.64 141.591 268.88C141.031 269.12 140.439 269.24 139.815 269.24ZM149.575 269L149.575 256.304L152.863 256.304L152.983 260.384L152.407 259.52C152.615 258.88 152.927 258.296 153.343 257.768C153.775 257.24 154.279 256.824 154.855 256.52C155.447 256.2 156.063 256.04 156.703 256.04C156.991 256.04 157.255 256.064 157.495 256.112C157.751 256.144 157.967 256.2 158.143 256.28L157.231 260C157.055 259.92 156.823 259.848 156.535 259.784C156.263 259.704 155.983 259.664 155.695 259.664C155.327 259.664 154.975 259.736 154.639 259.88C154.319 260.008 154.031 260.2 153.775 260.456C153.535 260.696 153.343 260.984 153.199 261.32C153.071 261.656 153.007 262.032 153.007 262.448L153.007 269L149.575 269ZM163.315 265.184L162.379 262.352L168.331 256.304L172.819 256.304L163.315 265.184ZM160.099 269L160.099 251.24L163.507 251.24L163.507 269L160.099 269ZM168.691 269L164.131 263.312L166.555 261.368L172.795 269L168.691 269ZM180.162 269.24C178.786 269.24 177.578 268.96 176.538 268.4C175.514 267.84 174.714 267.072 174.138 266.096C173.578 265.12 173.298 264.008 173.298 262.76C173.298 261.768 173.458 260.864 173.778 260.048C174.098 259.216 174.546 258.504 175.122 257.912C175.698 257.32 176.378 256.864 177.162 256.544C177.962 256.208 178.834 256.04 179.778 256.04C180.642 256.04 181.434 256.2 182.154 256.52C182.89 256.824 183.522 257.264 184.05 257.84C184.594 258.4 185.01 259.064 185.298 259.832C185.586 260.6 185.722 261.44 185.706 262.352L185.682 263.408L175.482 263.408L174.93 261.296L182.874 261.296L182.466 261.728L182.466 261.224C182.434 260.776 182.29 260.384 182.034 260.048C181.794 259.712 181.482 259.448 181.098 259.256C180.714 259.048 180.29 258.944 179.826 258.944C179.106 258.944 178.498 259.088 178.002 259.376C177.522 259.648 177.154 260.048 176.898 260.576C176.658 261.088 176.538 261.728 176.538 262.496C176.538 263.248 176.698 263.912 177.018 264.488C177.338 265.048 177.794 265.48 178.386 265.784C178.994 266.088 179.706 266.24 180.522 266.24C181.082 266.24 181.594 266.152 182.058 265.976C182.522 265.8 183.026 265.496 183.57 265.064L185.178 267.344C184.73 267.744 184.226 268.088 183.666 268.376C183.106 268.664 182.53 268.88 181.938 269.024C181.346 269.168 180.754 269.24 180.162 269.24ZM189.448 269L189.448 253.088L192.856 253.088L192.856 269L189.448 269ZM187.072 259.352L187.072 256.304L195.472 256.304L195.472 259.352L187.072 259.352ZM205.485 269L205.485 252.2L212.925 252.2C213.981 252.2 214.925 252.432 215.757 252.896C216.605 253.36 217.277 254 217.773 254.816C218.269 255.616 218.517 256.536 218.517 257.576C218.517 258.584 218.269 259.496 217.773 260.312C217.277 261.128 216.605 261.776 215.757 262.256C214.925 262.736 213.981 262.976 212.925 262.976L208.941 262.976L208.941 269L205.485 269ZM215.037 269L210.765 261.392L214.437 260.792L219.189 269.024L215.037 269ZM208.941 260.024L212.781 260.024C213.213 260.024 213.589 259.928 213.909 259.736C214.245 259.528 214.501 259.248 214.677 258.896C214.869 258.544 214.965 258.144 214.965 257.696C214.965 257.232 214.853 256.824 214.629 256.472C214.405 256.104 214.093 255.824 213.693 255.632C213.293 255.424 212.829 255.32 212.301 255.32L208.941 255.32L208.941 260.024ZM228.396 269L228.396 261.056C228.396 260.384 228.188 259.872 227.772 259.52C227.372 259.152 226.828 258.968 226.14 258.968C225.484 258.968 224.9 259.096 224.388 259.352C223.876 259.608 223.396 260.008 222.948 260.552L220.86 258.536C221.628 257.736 222.484 257.12 223.428 256.688C224.388 256.256 225.428 256.04 226.548 256.04C227.572 256.04 228.46 256.2 229.212 256.52C229.98 256.84 230.572 257.32 230.988 257.96C231.404 258.6 231.612 259.408 231.612 260.384L231.612 269L228.396 269ZM224.916 269.24C224.116 269.24 223.388 269.08 222.732 268.76C222.092 268.44 221.58 268 221.196 267.44C220.828 266.864 220.644 266.192 220.644 265.424C220.644 264.768 220.764 264.192 221.004 263.696C221.244 263.184 221.596 262.768 222.06 262.448C222.54 262.112 223.132 261.856 223.836 261.68C224.556 261.504 225.388 261.416 226.332 261.416L230.076 261.416L229.86 263.696L226.284 263.696C225.9 263.696 225.556 263.728 225.252 263.792C224.964 263.856 224.716 263.96 224.508 264.104C224.316 264.248 224.164 264.416 224.052 264.608C223.956 264.8 223.908 265.024 223.908 265.28C223.908 265.552 223.98 265.792 224.124 266C224.268 266.208 224.46 266.368 224.7 266.48C224.956 266.592 225.244 266.648 225.564 266.648C226.028 266.648 226.468 266.568 226.884 266.408C227.316 266.248 227.7 266.024 228.036 265.736C228.372 265.448 228.636 265.12 228.828 264.752L229.476 266.456C229.14 267 228.732 267.48 228.252 267.896C227.772 268.312 227.252 268.64 226.692 268.88C226.132 269.12 225.54 269.24 224.916 269.24ZM235.901 269L235.901 253.088L239.309 253.088L239.309 269L235.901 269ZM233.525 259.352L233.525 256.304L241.925 256.304L241.925 259.352L233.525 259.352ZM250.029 269.24C248.653 269.24 247.445 268.96 246.405 268.4C245.381 267.84 244.581 267.072 244.005 266.096C243.445 265.12 243.165 264.008 243.165 262.76C243.165 261.768 243.325 260.864 243.645 260.048C243.965 259.216 244.413 258.504 244.989 257.912C245.565 257.32 246.245 256.864 247.029 256.544C247.829 256.208 248.701 256.04 249.645 256.04C250.509 256.04 251.301 256.2 252.021 256.52C252.757 256.824 253.389 257.264 253.917 257.84C254.461 258.4 254.877 259.064 255.165 259.832C255.453 260.6 255.589 261.44 255.573 262.352L255.549 263.408L245.349 263.408L244.797 261.296L252.741 261.296L252.333 261.728L252.333 261.224C252.301 260.776 252.157 260.384 251.901 260.048C251.661 259.712 251.349 259.448 250.965 259.256C250.581 259.048 250.157 258.944 249.693 258.944C248.973 258.944 248.365 259.088 247.869 259.376C247.389 259.648 247.021 260.048 246.765 260.576C246.525 261.088 246.405 261.728 246.405 262.496C246.405 263.248 246.565 263.912 246.885 264.488C247.205 265.048 247.661 265.48 248.253 265.784C248.861 266.088 249.573 266.24 250.389 266.24C250.949 266.24 251.461 266.152 251.925 265.976C252.389 265.8 252.893 265.496 253.437 265.064L255.045 267.344C254.597 267.744 254.093 268.088 253.533 268.376C252.973 268.664 252.397 268.88 251.805 269.024C251.213 269.168 250.621 269.24 250.029 269.24ZM262.363 269.24C261.195 269.24 260.147 269.048 259.219 268.664C258.307 268.28 257.563 267.736 256.987 267.032L259.123 265.208C259.619 265.736 260.163 266.12 260.755 266.36C261.363 266.584 261.979 266.696 262.603 266.696C262.827 266.696 263.035 266.672 263.227 266.624C263.419 266.56 263.587 266.48 263.731 266.384C263.875 266.272 263.979 266.144 264.043 266C264.123 265.856 264.163 265.688 264.163 265.496C264.163 265.144 264.019 264.872 263.731 264.68C263.603 264.584 263.363 264.48 263.011 264.368C262.675 264.24 262.243 264.104 261.715 263.96C260.899 263.752 260.211 263.512 259.651 263.24C259.091 262.952 258.635 262.624 258.283 262.256C257.995 261.952 257.771 261.6 257.611 261.2C257.467 260.8 257.395 260.36 257.395 259.88C257.395 259.112 257.619 258.44 258.067 257.864C258.515 257.288 259.107 256.84 259.843 256.52C260.595 256.2 261.411 256.04 262.291 256.04C262.947 256.04 263.579 256.12 264.187 256.28C264.811 256.44 265.387 256.672 265.915 256.976C266.459 257.264 266.931 257.608 267.331 258.008L265.507 260.048C265.219 259.76 264.891 259.512 264.523 259.304C264.155 259.08 263.787 258.904 263.419 258.776C263.051 258.632 262.715 258.56 262.411 258.56C262.139 258.56 261.891 258.584 261.667 258.632C261.459 258.68 261.283 258.76 261.139 258.872C260.995 258.968 260.883 259.088 260.803 259.232C260.739 259.376 260.707 259.536 260.707 259.712C260.707 259.888 260.747 260.056 260.827 260.216C260.923 260.36 261.051 260.496 261.211 260.624C261.371 260.72 261.627 260.832 261.979 260.96C262.347 261.088 262.819 261.232 263.395 261.392C264.163 261.6 264.811 261.832 265.339 262.088C265.867 262.344 266.291 262.64 266.611 262.976C266.899 263.264 267.099 263.6 267.211 263.984C267.339 264.352 267.403 264.752 267.403 265.184C267.403 265.968 267.179 266.672 266.731 267.296C266.299 267.904 265.699 268.384 264.931 268.736C264.179 269.072 263.323 269.24 262.363 269.24ZM277.48 269L277.48 256.304L280.888 256.304L280.888 269L277.48 269ZM279.16 253.688C278.504 253.688 277.992 253.528 277.624 253.208C277.256 252.888 277.072 252.432 277.072 251.84C277.072 251.296 277.256 250.856 277.624 250.52C278.008 250.168 278.528 249.992 279.184 249.992C279.824 249.992 280.328 250.16 280.696 250.496C281.064 250.816 281.248 251.264 281.248 251.84C281.248 252.4 281.064 252.848 280.696 253.184C280.328 253.52 279.816 253.688 279.16 253.688ZM284.552 269L284.552 256.304L287.84 256.304L287.936 258.896L287.264 259.184C287.424 258.608 287.736 258.088 288.2 257.624C288.664 257.144 289.216 256.76 289.856 256.472C290.496 256.184 291.16 256.04 291.848 256.04C292.808 256.04 293.608 256.232 294.248 256.616C294.904 257 295.392 257.584 295.712 258.368C296.048 259.136 296.216 260.096 296.216 261.248L296.216 269L292.808 269L292.808 261.488C292.808 260.912 292.728 260.432 292.568 260.048C292.408 259.664 292.168 259.384 291.848 259.208C291.528 259.032 291.12 258.952 290.624 258.968C290.24 258.968 289.888 259.032 289.568 259.16C289.248 259.272 288.96 259.44 288.704 259.664C288.464 259.888 288.28 260.144 288.152 260.432C288.024 260.72 287.96 261.04 287.96 261.392L287.96 269L286.256 269C285.904 269 285.584 269 285.296 269C285.008 269 284.76 269 284.552 269ZM307.297 269L307.297 252.2L310.585 252.2L316.681 262.136L314.545 262.112L320.737 252.2L323.905 252.2L323.905 269L320.377 269L320.377 263.312C320.377 261.856 320.409 260.544 320.473 259.376C320.553 258.208 320.681 257.056 320.857 255.92L321.265 257.048L316.345 264.656L314.737 264.656L309.937 257.096L310.321 255.92C310.513 256.992 310.641 258.096 310.705 259.232C310.785 260.368 310.825 261.728 310.825 263.312L310.825 269L307.297 269ZM328.058 269L328.058 256.304L331.466 256.304L331.466 269L328.058 269ZM329.738 253.688C329.082 253.688 328.57 253.528 328.202 253.208C327.834 252.888 327.65 252.432 327.65 251.84C327.65 251.296 327.834 250.856 328.202 250.52C328.586 250.168 329.106 249.992 329.762 249.992C330.402 249.992 330.906 250.16 331.274 250.496C331.642 250.816 331.826 251.264 331.826 251.84C331.826 252.4 331.642 252.848 331.274 253.184C330.906 253.52 330.394 253.688 329.738 253.688ZM335.13 269L335.13 256.304L338.418 256.304L338.514 258.896L337.842 259.184C338.002 258.608 338.314 258.088 338.778 257.624C339.242 257.144 339.794 256.76 340.434 256.472C341.074 256.184 341.738 256.04 342.426 256.04C343.386 256.04 344.186 256.232 344.826 256.616C345.482 257 345.97 257.584 346.29 258.368C346.626 259.136 346.794 260.096 346.794 261.248L346.794 269L343.386 269L343.386 261.488C343.386 260.912 343.306 260.432 343.146 260.048C342.986 259.664 342.746 259.384 342.426 259.208C342.106 259.032 341.698 258.952 341.202 258.968C340.818 258.968 340.466 259.032 340.146 259.16C339.826 259.272 339.538 259.44 339.282 259.664C339.042 259.888 338.858 260.144 338.73 260.432C338.602 260.72 338.538 261.04 338.538 261.392L338.538 269L336.834 269C336.482 269 336.162 269 335.874 269C335.586 269 335.338 269 335.13 269ZM354.427 269.24C353.515 269.24 352.723 269.04 352.051 268.64C351.379 268.224 350.859 267.64 350.491 266.888C350.139 266.12 349.963 265.208 349.963 264.152L349.963 256.304L353.371 256.304L353.371 263.528C353.371 264.424 353.579 265.128 353.995 265.64C354.427 266.136 355.019 266.384 355.771 266.384C356.155 266.384 356.499 266.328 356.803 266.216C357.123 266.088 357.395 265.912 357.619 265.688C357.843 265.464 358.019 265.2 358.147 264.896C358.275 264.592 358.339 264.256 358.339 263.888L358.339 256.304L361.747 256.304L361.747 269L358.507 269L358.411 266.384L359.011 266.096C358.835 266.688 358.515 267.224 358.051 267.704C357.603 268.184 357.067 268.56 356.443 268.832C355.819 269.104 355.147 269.24 354.427 269.24ZM366.401 269L366.401 253.088L369.809 253.088L369.809 269L366.401 269ZM364.025 259.352L364.025 256.304L372.425 256.304L372.425 259.352L364.025 259.352ZM380.529 269.24C379.153 269.24 377.945 268.96 376.905 268.4C375.881 267.84 375.081 267.072 374.505 266.096C373.945 265.12 373.665 264.008 373.665 262.76C373.665 261.768 373.825 260.864 374.145 260.048C374.465 259.216 374.913 258.504 375.489 257.912C376.065 257.32 376.745 256.864 377.529 256.544C378.329 256.208 379.201 256.04 380.145 256.04C381.009 256.04 381.801 256.2 382.521 256.52C383.257 256.824 383.889 257.264 384.417 257.84C384.961 258.4 385.377 259.064 385.665 259.832C385.953 260.6 386.089 261.44 386.073 262.352L386.049 263.408L375.849 263.408L375.297 261.296L383.241 261.296L382.833 261.728L382.833 261.224C382.801 260.776 382.657 260.384 382.401 260.048C382.161 259.712 381.849 259.448 381.465 259.256C381.081 259.048 380.657 258.944 380.193 258.944C379.473 258.944 378.865 259.088 378.369 259.376C377.889 259.648 377.521 260.048 377.265 260.576C377.025 261.088 376.905 261.728 376.905 262.496C376.905 263.248 377.065 263.912 377.385 264.488C377.705 265.048 378.161 265.48 378.753 265.784C379.361 266.088 380.073 266.24 380.889 266.24C381.449 266.24 381.961 266.152 382.425 265.976C382.889 265.8 383.393 265.496 383.937 265.064L385.545 267.344C385.097 267.744 384.593 268.088 384.033 268.376C383.473 268.664 382.897 268.88 382.305 269.024C381.713 269.168 381.121 269.24 380.529 269.24ZM392.863 269.24C391.695 269.24 390.647 269.048 389.719 268.664C388.807 268.28 388.063 267.736 387.487 267.032L389.623 265.208C390.119 265.736 390.663 266.12 391.255 266.36C391.863 266.584 392.479 266.696 393.103 266.696C393.327 266.696 393.535 266.672 393.727 266.624C393.919 266.56 394.087 266.48 394.231 266.384C394.375 266.272 394.479 266.144 394.543 266C394.623 265.856 394.663 265.688 394.663 265.496C394.663 265.144 394.519 264.872 394.231 264.68C394.103 264.584 393.863 264.48 393.511 264.368C393.175 264.24 392.743 264.104 392.215 263.96C391.399 263.752 390.711 263.512 390.151 263.24C389.591 262.952 389.135 262.624 388.783 262.256C388.495 261.952 388.271 261.6 388.111 261.2C387.967 260.8 387.895 260.36 387.895 259.88C387.895 259.112 388.119 258.44 388.567 257.864C389.015 257.288 389.607 256.84 390.343 256.52C391.095 256.2 391.911 256.04 392.791 256.04C393.447 256.04 394.079 256.12 394.687 256.28C395.311 256.44 395.887 256.672 396.415 256.976C396.959 257.264 397.431 257.608 397.831 258.008L396.007 260.048C395.719 259.76 395.391 259.512 395.023 259.304C394.655 259.08 394.287 258.904 393.919 258.776C393.551 258.632 393.215 258.56 392.911 258.56C392.639 258.56 392.391 258.584 392.167 258.632C391.959 258.68 391.783 258.76 391.639 258.872C391.495 258.968 391.383 259.088 391.303 259.232C391.239 259.376 391.207 259.536 391.207 259.712C391.207 259.888 391.247 260.056 391.327 260.216C391.423 260.36 391.551 260.496 391.711 260.624C391.871 260.72 392.127 260.832 392.479 260.96C392.847 261.088 393.319 261.232 393.895 261.392C394.663 261.6 395.311 261.832 395.839 262.088C396.367 262.344 396.791 262.64 397.111 262.976C397.399 263.264 397.599 263.6 397.711 263.984C397.839 264.352 397.903 264.752 397.903 265.184C397.903 265.968 397.679 266.672 397.231 267.296C396.799 267.904 396.199 268.384 395.431 268.736C394.679 269.072 393.823 269.24 392.863 269.24Z" fill="white"/>
<g filter="url(#filter0_d_2076_3266)">
<path d="M68.9043 232.86C64.031 232.86 59.2723 231.971 54.6283 230.194C49.9843 228.359 45.8563 225.779 42.2443 222.454L49.3823 213.51C52.8797 216.549 56.2337 218.785 59.4443 220.218C62.7123 221.594 66.1523 222.282 69.7643 222.282C72.287 222.282 74.4657 221.995 76.3003 221.422C78.135 220.791 79.5397 219.903 80.5143 218.756C81.5463 217.609 82.0623 216.262 82.0623 214.714C82.0623 212.65 81.317 211.073 79.8263 209.984C78.3357 208.837 75.7843 207.949 72.1723 207.318L60.2183 205.254C55.1157 204.394 51.217 202.588 48.5223 199.836C45.885 197.084 44.5663 193.529 44.5663 189.172C44.5663 185.445 45.5123 182.206 47.4043 179.454C49.3537 176.702 52.077 174.609 55.5743 173.176C59.129 171.685 63.343 170.94 68.2163 170.94C72.631 170.94 77.017 171.685 81.3743 173.176C85.789 174.667 89.6877 176.731 93.0703 179.368L86.3623 188.656C80.0557 183.84 73.7203 181.432 67.3563 181.432C65.1203 181.432 63.171 181.719 61.5083 182.292C59.8457 182.865 58.5557 183.668 57.6383 184.7C56.7783 185.675 56.3483 186.85 56.3483 188.226C56.3483 190.061 57.0077 191.494 58.3263 192.526C59.645 193.501 61.8523 194.246 64.9483 194.762L76.3003 196.654C82.3203 197.629 86.821 199.549 89.8023 202.416C92.7837 205.225 94.2743 208.952 94.2743 213.596C94.2743 217.495 93.2423 220.906 91.1783 223.83C89.1143 226.697 86.1617 228.933 82.3203 230.538C78.5363 232.086 74.0643 232.86 68.9043 232.86ZM123.654 232.86C119.182 232.86 115.111 231.828 111.442 229.764C107.83 227.7 104.963 224.919 102.842 221.422C100.721 217.925 99.6601 213.997 99.6601 209.64C99.6601 205.283 100.663 201.355 102.67 197.858C104.734 194.361 107.515 191.58 111.012 189.516C114.509 187.452 118.408 186.42 122.708 186.42C127.008 186.42 130.821 187.481 134.146 189.602C137.471 191.723 140.08 194.59 141.972 198.202C143.921 201.814 144.896 205.913 144.896 210.5V213.596H111.7C112.216 215.373 113.047 216.979 114.194 218.412C115.398 219.845 116.86 220.963 118.58 221.766C120.357 222.569 122.249 222.97 124.256 222.97C126.263 222.97 128.097 222.655 129.76 222.024C131.48 221.393 132.942 220.505 134.146 219.358L141.886 226.41C139.134 228.646 136.296 230.28 133.372 231.312C130.505 232.344 127.266 232.86 123.654 232.86ZM111.528 205.168H133.286C132.885 203.391 132.139 201.843 131.05 200.524C130.018 199.148 128.757 198.087 127.266 197.342C125.833 196.539 124.227 196.138 122.45 196.138C120.615 196.138 118.953 196.511 117.462 197.256C116.029 198.001 114.796 199.062 113.764 200.438C112.732 201.757 111.987 203.333 111.528 205.168ZM166.139 232.774C162.928 232.774 160.09 232.201 157.625 231.054C155.159 229.85 153.239 228.216 151.863 226.152C150.487 224.088 149.799 221.709 149.799 219.014C149.799 214.714 151.404 211.389 154.615 209.038C157.883 206.63 162.355 205.426 168.031 205.426C171.929 205.426 175.599 206.028 179.039 207.232V203.964C179.039 201.384 178.236 199.435 176.631 198.116C175.025 196.797 172.675 196.138 169.579 196.138C167.687 196.138 165.651 196.453 163.473 197.084C161.294 197.657 158.771 198.575 155.905 199.836L151.605 191.15C155.159 189.545 158.542 188.341 161.753 187.538C165.021 186.735 168.289 186.334 171.557 186.334C177.577 186.334 182.249 187.796 185.575 190.72C188.957 193.587 190.649 197.657 190.649 202.932V232H179.039V228.818C177.204 230.194 175.226 231.197 173.105 231.828C170.983 232.459 168.661 232.774 166.139 232.774ZM160.979 218.756C160.979 220.476 161.724 221.852 163.215 222.884C164.705 223.859 166.683 224.346 169.149 224.346C171.098 224.346 172.904 224.117 174.567 223.658C176.229 223.142 177.72 222.397 179.039 221.422V214.886C177.605 214.313 176.115 213.883 174.567 213.596C173.019 213.309 171.356 213.166 169.579 213.166C166.884 213.166 164.763 213.682 163.215 214.714C161.724 215.689 160.979 217.036 160.979 218.756ZM199.566 232V187.194H211.348V192.182C212.781 190.233 214.501 188.742 216.508 187.71C218.515 186.678 220.779 186.162 223.302 186.162C225.481 186.219 227.115 186.563 228.204 187.194V197.514C227.344 197.113 226.398 196.826 225.366 196.654C224.334 196.425 223.273 196.31 222.184 196.31C219.891 196.31 217.798 196.883 215.906 198.03C214.014 199.177 212.495 200.811 211.348 202.932V232H199.566ZM254.322 232.86C249.907 232.86 245.922 231.857 242.368 229.85C238.813 227.786 236.004 225.005 233.94 221.508C231.876 217.953 230.844 213.997 230.844 209.64C230.844 205.225 231.876 201.269 233.94 197.772C236.004 194.275 238.813 191.494 242.368 189.43C245.922 187.366 249.907 186.334 254.322 186.334C257.876 186.334 261.259 187.022 264.47 188.398C267.738 189.774 270.547 191.752 272.898 194.332L265.674 201.986C264.011 200.151 262.262 198.804 260.428 197.944C258.65 197.027 256.701 196.568 254.58 196.568C252.286 196.568 250.222 197.141 248.388 198.288C246.61 199.435 245.177 200.983 244.088 202.932C243.056 204.881 242.54 207.117 242.54 209.64C242.54 212.048 243.056 214.255 244.088 216.262C245.177 218.211 246.668 219.759 248.56 220.906C250.452 221.995 252.544 222.54 254.838 222.54C256.844 222.54 258.708 222.139 260.428 221.336C262.205 220.476 263.896 219.215 265.502 217.552L272.554 224.948C270.26 227.413 267.508 229.363 264.298 230.796C261.087 232.172 257.762 232.86 254.322 232.86ZM278.679 232V171.8L290.461 169.22V190.892C293.844 187.853 298.029 186.334 303.017 186.334C306.514 186.334 309.582 187.108 312.219 188.656C314.914 190.147 317.006 192.239 318.497 194.934C319.988 197.571 320.733 200.667 320.733 204.222V232H308.951V205.942C308.951 203.018 308.12 200.725 306.457 199.062C304.794 197.342 302.53 196.482 299.663 196.482C297.656 196.482 295.879 196.883 294.331 197.686C292.783 198.431 291.493 199.521 290.461 200.954V232H278.679Z" fill="white"/>
</g>
<g filter="url(#filter1_d_2076_3266)">
<path d="M330.713 232V171.8H343.183V232H330.713ZM353.371 232V187.194H365.153V190.892C368.535 187.853 372.721 186.334 377.709 186.334C381.206 186.334 384.273 187.108 386.911 188.656C389.605 190.147 391.698 192.239 393.189 194.934C394.679 197.571 395.425 200.667 395.425 204.222V232H383.643V205.942C383.643 203.018 382.811 200.725 381.149 199.062C379.486 197.342 377.221 196.482 374.355 196.482C372.348 196.482 370.571 196.883 369.023 197.686C367.475 198.431 366.185 199.521 365.153 200.954V232H353.371Z" fill="#FFF200"/>
</g>
</g>
<defs>
<filter id="filter0_d_2076_3266" x="41.2441" y="168.22" width="286.488" height="71.6406" filterUnits="userSpaceOnUse" color-interpolation-filters="sRGB">
<feFlood flood-opacity="0" result="BackgroundImageFix"/>
<feColorMatrix in="SourceAlpha" type="matrix" values="0 0 0 0 0 0 0 0 0 0 0 0 0 0 0 0 0 0 127 0" result="hardAlpha"/>
<feOffset dx="3" dy="3"/>
<feGaussianBlur stdDeviation="2"/>
<feComposite in2="hardAlpha" operator="out"/>
<feColorMatrix type="matrix" values="0 0 0 0 0.952941 0 0 0 0 0.478431 0 0 0 0 0.12549 0 0 0 1 0"/>
<feBlend mode="normal" in2="BackgroundImageFix" result="effect1_dropShadow_2076_3266"/>
<feBlend mode="normal" in="SourceGraphic" in2="effect1_dropShadow_2076_3266" result="shape"/>
</filter>
<filter id="filter1_d_2076_3266" x="329.713" y="170.8" width="72.7109" height="68.2002" filterUnits="userSpaceOnUse" color-interpolation-filters="sRGB">
<feFlood flood-opacity="0" result="BackgroundImageFix"/>
<feColorMatrix in="SourceAlpha" type="matrix" values="0 0 0 0 0 0 0 0 0 0 0 0 0 0 0 0 0 0 127 0" result="hardAlpha"/>
<feOffset dx="3" dy="3"/>
<feGaussianBlur stdDeviation="2"/>
<feComposite in2="hardAlpha" operator="out"/>
<feColorMatrix type="matrix" values="0 0 0 0 0.952941 0 0 0 0 0.478431 0 0 0 0 0.12549 0 0 0 1 0"/>
<feBlend mode="normal" in2="BackgroundImageFix" result="effect1_dropShadow_2076_3266"/>
<feBlend mode="normal" in="SourceGraphic" in2="effect1_dropShadow_2076_3266" result="shape"/>
</filter>
<clipPath id="clip0_2076_3266">
<rect width="441" height="441" fill="white"/>
</clipPath>
</defs>
</svg>
